<svg width="23" height="23" viewBox="0 0 23 23" fill="none" xmlns="http://www.w3.org/2000/svg">
<g clip-path="url(#clip0_28_419)">
<path d="M22.7553 9.34653L11.8529 1.36405C11.6427 1.21014 11.3571 1.21014 11.1469 1.36405L0.244473 9.34653C-0.0218239 9.54153 -0.0796833 9.91546 0.115323 10.1818C0.310329 10.4481 0.684303 10.5058 0.950555 10.3109L11.4999 2.58686L22.0492 10.3109C22.1556 10.3888 22.2792 10.4263 22.4017 10.4263C22.5857 10.4263 22.7673 10.3416 22.8844 10.1817C23.0794 9.91546 23.0216 9.54153 22.7553 9.34653Z" fill="#3748E4"/>
<path d="M19.8664 10.4463C19.5364 10.4463 19.2688 10.7138 19.2688 11.0439V20.556H14.4881V15.3637C14.4881 13.716 13.1475 12.3755 11.4999 12.3755C9.85225 12.3755 8.51169 13.716 8.51169 15.3637V20.5561H3.73097V11.0439C3.73097 10.7139 3.46337 10.4463 3.13338 10.4463C2.80338 10.4463 2.53578 10.7139 2.53578 11.0439V21.1537C2.53578 21.4838 2.80338 21.7513 3.13338 21.7513H9.10929C9.42356 21.7513 9.68074 21.5085 9.70455 21.2003C9.70599 21.1863 9.70688 21.171 9.70688 21.1537V15.3637C9.70688 14.3751 10.5112 13.5707 11.4999 13.5707C12.4886 13.5707 13.2929 14.3751 13.2929 15.3637V21.1537C13.2929 21.1709 13.2938 21.1859 13.2952 21.1997C13.3188 21.5082 13.576 21.7513 13.8905 21.7513H19.8664C20.1965 21.7513 20.464 21.4838 20.464 21.1537V11.0439C20.464 10.7138 20.1964 10.4463 19.8664 10.4463Z" fill="#3748E4"/>
</g>
<defs>
<clipPath id="clip0_28_419">
<rect width="23" height="23" fill="white"/>
</clipPath>
</defs>
</svg>
