<svg width="29" height="29" viewBox="0 0 29 29" fill="none" xmlns="http://www.w3.org/2000/svg">
<g clip-path="url(#clip0_28_447)">
<path d="M14.5 7.12915C15.9017 7.12915 17.0375 8.26498 17.0375 9.66665C17.0375 11.0683 15.9017 12.2041 14.5 12.2041C13.0983 12.2041 11.9625 11.0683 11.9625 9.66665C11.9625 8.26498 13.0983 7.12915 14.5 7.12915ZM14.5 18.0041C18.0887 18.0041 21.8708 19.7683 21.8708 20.5416V21.8708H7.12917V20.5416C7.12917 19.7683 10.9112 18.0041 14.5 18.0041ZM14.5 4.83331C11.8296 4.83331 9.66667 6.99623 9.66667 9.66665C9.66667 12.3371 11.8296 14.5 14.5 14.5C17.1704 14.5 19.3333 12.3371 19.3333 9.66665C19.3333 6.99623 17.1704 4.83331 14.5 4.83331ZM14.5 15.7083C11.2737 15.7083 4.83333 17.3275 4.83333 20.5416V24.1666H24.1667V20.5416C24.1667 17.3275 17.7262 15.7083 14.5 15.7083Z" fill="#333333"/>
</g>
<defs>
<clipPath id="clip0_28_447">
<rect width="29" height="29" fill="white"/>
</clipPath>
</defs>
</svg>
