<svg width="38" height="38" viewBox="0 0 38 38" fill="none" xmlns="http://www.w3.org/2000/svg">
<g clip-path="url(#clip0_28_409)">
<path d="M26.9167 30.4317H7.91667V11.0833H19V7.91666H7.91667C6.175 7.91666 4.75 9.34166 4.75 11.0833V30.0833C4.75 31.825 6.175 33.25 7.91667 33.25H26.9167C28.6583 33.25 30.0833 31.825 30.0833 30.0833V19H26.9167V30.4317Z" fill="#222222"/>
<path d="M30.0833 3.16666H26.9167V7.91666H22.1667C22.1825 7.9325 22.1667 11.0833 22.1667 11.0833H26.9167V15.8175C26.9325 15.8333 30.0833 15.8175 30.0833 15.8175V11.0833H34.8333V7.91666H30.0833V3.16666Z" fill="#222222"/>
<path d="M23.75 14.25H11.0833V17.4167H23.75V14.25Z" fill="#222222"/>
<path d="M11.0833 19V22.1667H23.75V19H19H11.0833Z" fill="#222222"/>
<path d="M23.75 23.75H11.0833V26.9167H23.75V23.75Z" fill="#222222"/>
</g>
<defs>
<clipPath id="clip0_28_409">
<rect width="38" height="38" fill="white"/>
</clipPath>
</defs>
</svg>
