<svg width="31" height="28" viewBox="0 0 31 28" fill="none" xmlns="http://www.w3.org/2000/svg">
<path d="M9.98788 18.1018H9.9893C9.99048 18.1018 9.99166 18.1016 9.99284 18.1016H26.459C26.8644 18.1016 27.2208 17.8587 27.3322 17.5066L30.965 6.02226C31.0433 5.77467 30.9884 5.5085 30.8169 5.30299C30.6452 5.09749 30.3768 4.97658 30.0918 4.97658H7.89333L7.24411 2.33769C7.15163 1.96236 6.78315 1.69533 6.35743 1.69533H0.908211C0.40657 1.69533 7.62939e-06 2.06255 7.62939e-06 2.51564C7.62939e-06 2.96873 0.40657 3.33595 0.908211 3.33595H5.62897C5.74392 3.80357 8.73579 15.9643 8.90797 16.6639C7.94276 17.0429 7.26563 17.9121 7.26563 18.9219C7.26563 20.2788 8.48792 21.3828 9.99024 21.3828H26.459C26.9606 21.3828 27.3672 21.0156 27.3672 20.5625C27.3672 20.1094 26.9606 19.7422 26.459 19.7422H9.99024C9.48955 19.7422 9.08204 19.3741 9.08204 18.9219C9.08204 18.4703 9.48813 18.1029 9.98788 18.1018ZM28.8877 6.6172L25.7738 16.461H10.7187L8.29682 6.6172H28.8877Z" fill="black"/>
<path d="M9.08195 23.8437C9.08195 25.2006 10.3042 26.3046 11.8066 26.3046C13.3089 26.3046 14.5312 25.2006 14.5312 23.8437C14.5312 22.4868 13.3089 21.3828 11.8066 21.3828C10.3042 21.3828 9.08195 22.4868 9.08195 23.8437ZM11.8066 23.0234C12.3073 23.0234 12.7148 23.3914 12.7148 23.8437C12.7148 24.2959 12.3073 24.664 11.8066 24.664C11.3059 24.664 10.8984 24.2959 10.8984 23.8437C10.8984 23.3914 11.3059 23.0234 11.8066 23.0234Z" fill="black"/>
<path d="M21.9179 23.8437C21.9179 25.2006 23.1402 26.3046 24.6425 26.3046C26.1448 26.3046 27.3671 25.2006 27.3671 23.8437C27.3671 22.4868 26.1448 21.3828 24.6425 21.3828C23.1402 21.3828 21.9179 22.4868 21.9179 23.8437ZM24.6425 23.0234C25.1432 23.0234 25.5507 23.3914 25.5507 23.8437C25.5507 24.2959 25.1432 24.664 24.6425 24.664C24.1418 24.664 23.7343 24.2959 23.7343 23.8437C23.7343 23.3914 24.1418 23.0234 24.6425 23.0234Z" fill="black"/>
</svg>
